<svg width="71" height="71" viewBox="0 0 71 71" fill="none" xmlns="http://www.w3.org/2000/svg">
<g clip-path="url(#clip0_4311_181)">
<rect width="71" height="71" fill="white" fill-opacity="0.27"/>
<g filter="url(#filter0_d_4311_181)">
<rect width="71" height="71" rx="20" fill="white" fill-opacity="0.27" shape-rendering="crispEdges"/>
</g>
<path d="M42.5455 36.8889H37.3788V29.8056H33.6212V36.8889H28.4545L35.5 43.5L42.5455 36.8889ZM47.5556 21.4H40.3567C39.6333 19.428 37.7389 18 35.5 18C33.2611 18 31.3667 19.428 30.6433 21.4H23.4444C23.2033 21.4 22.9794 21.417 22.7556 21.468C22.2071 21.5816 21.6947 21.8251 21.2627 22.1775C20.8307 22.5299 20.4919 22.9807 20.2756 23.491C20.1033 23.882 20 24.324 20 24.8V48.6C20 49.059 20.1033 49.518 20.2756 49.926C20.4478 50.334 20.7061 50.691 21.0161 51.014C21.4811 51.473 22.0839 51.813 22.7556 51.949C22.9794 51.983 23.2033 52 23.4444 52H47.5556C49.45 52 51 50.47 51 48.6V24.8C51 22.93 49.45 21.4 47.5556 21.4ZM35.5 20.975C36.2061 20.975 36.7917 21.553 36.7917 22.25C36.7917 22.947 36.2061 23.525 35.5 23.525C34.7939 23.525 34.2083 22.947 34.2083 22.25C34.2083 21.553 34.7939 20.975 35.5 20.975ZM47.5556 48.6H23.4444V24.8H47.5556V48.6Z" fill="#CD84F0"/>
</g>
<defs>
<filter id="filter0_d_4311_181" x="-70" y="-70" width="211" height="211" filterUnits="userSpaceOnUse" color-interpolation-filters="sRGB">
<feFlood flood-opacity="0" result="BackgroundImageFix"/>
<feColorMatrix in="SourceAlpha" type="matrix" values="0 0 0 0 0 0 0 0 0 0 0 0 0 0 0 0 0 0 127 0" result="hardAlpha"/>
<feOffset/>
<feGaussianBlur stdDeviation="35"/>
<feComposite in2="hardAlpha" operator="out"/>
<feColorMatrix type="matrix" values="0 0 0 0 0.67451 0 0 0 0 0.67451 0 0 0 0 0.67451 0 0 0 0.25 0"/>
<feBlend mode="normal" in2="BackgroundImageFix" result="effect1_dropShadow_4311_181"/>
<feBlend mode="normal" in="SourceGraphic" in2="effect1_dropShadow_4311_181" result="shape"/>
</filter>
<clipPath id="clip0_4311_181">
<rect width="71" height="71" fill="white"/>
</clipPath>
</defs>
</svg>
