<svg width="16" height="16" viewBox="0 0 16 16" fill="none" xmlns="http://www.w3.org/2000/svg">
<path d="M13.6568 2.34316C12.1459 0.832125 10.1369 0 8 0C5.86313 0 3.85413 0.832125 2.34316 2.34316C0.832156 3.85416 0 5.86313 0 8C0 10.1369 0.832125 12.1459 2.34316 13.6568C3.85416 15.1678 5.86313 16 8 16C10.1369 16 12.1459 15.1679 13.6568 13.6568C15.1678 12.1458 16 10.1369 16 8C16 5.86313 15.1679 3.85413 13.6568 2.34316ZM8 15.3469C3.94891 15.3469 0.653063 12.0511 0.653063 8C0.653063 3.94891 3.94891 0.653063 8 0.653063C12.0511 0.653063 15.3469 3.94891 15.3469 8C15.3469 12.0511 12.0511 15.3469 8 15.3469Z" fill="#26ECB5"/>
<path d="M8.00003 1.30612C4.309 1.30612 1.30615 4.30897 1.30615 8C1.30615 11.691 4.309 14.6939 8.00003 14.6939C11.691 14.6939 14.6939 11.691 14.6939 8C14.6939 4.30897 11.691 1.30612 8.00003 1.30612ZM8.00003 14.0408C4.66912 14.0408 1.95921 11.3309 1.95921 8C1.95921 4.66909 4.66912 1.95918 8.00003 1.95918C11.331 1.95918 14.0408 4.66909 14.0408 8C14.0408 11.3309 11.331 14.0408 8.00003 14.0408Z" fill="#26ECB5"/>
<path d="M13.0542 6.40378C12.9684 6.13963 12.7443 5.95072 12.4695 5.91078L9.82999 5.52725L8.64961 3.1355C8.52667 2.88641 8.27777 2.73169 8.00002 2.73172C7.72227 2.73172 7.47336 2.88647 7.35046 3.1355L6.17005 5.52725L3.53061 5.91078C3.25574 5.95072 3.03168 6.13963 2.94583 6.40378C2.86002 6.66794 2.93027 6.95247 3.12914 7.14638L5.03905 9.0081L4.58818 11.6369C4.54121 11.9106 4.65164 12.1821 4.87636 12.3454C5.10105 12.5087 5.39339 12.5298 5.63924 12.4005L7.99999 11.1594L10.3608 12.4005C10.4677 12.4568 10.5834 12.4845 10.6985 12.4845C10.8481 12.4845 10.9967 12.4377 11.1237 12.3454C11.3484 12.1822 11.4588 11.9107 11.4119 11.6369L10.961 9.00816L12.8709 7.14644C13.0698 6.9525 13.14 6.66794 13.0542 6.40378ZM12.415 6.67875L10.3822 8.66031C10.3053 8.73531 10.2701 8.84341 10.2883 8.94931L10.7682 11.7473C10.7731 11.7763 10.7636 11.7998 10.7398 11.8171C10.716 11.8344 10.6908 11.8362 10.6647 11.8225L8.15196 10.5015C8.10443 10.4765 8.05221 10.4639 8.00002 10.4639C7.94783 10.4639 7.89561 10.4764 7.84808 10.5015L5.33533 11.8225C5.3093 11.8362 5.28405 11.8344 5.26021 11.8171C5.23639 11.7998 5.22686 11.7763 5.23183 11.7473L5.71174 8.94931C5.72993 8.84338 5.6948 8.73531 5.61783 8.66031L3.58499 6.67875C3.56389 6.65822 3.55783 6.63359 3.56693 6.60559C3.57599 6.57763 3.59539 6.56128 3.62452 6.55703L6.43383 6.14881C6.54017 6.13338 6.63214 6.06656 6.67967 5.97019L7.93608 3.4245C7.94911 3.39813 7.97064 3.38475 8.00005 3.38475C8.02946 3.38475 8.05102 3.39813 8.06402 3.42453L9.32036 5.97019C9.36793 6.06653 9.45986 6.13334 9.56621 6.14881L12.3756 6.55703C12.4047 6.56128 12.424 6.57759 12.4331 6.60559C12.4422 6.63359 12.4361 6.65822 12.415 6.67875Z" fill="#26ECB5"/>
</svg>
