<svg width="71" height="71" viewBox="0 0 71 71" fill="none" xmlns="http://www.w3.org/2000/svg">
<g clip-path="url(#clip0_4311_22)">
<g filter="url(#filter0_d_4311_22)">
<rect width="71" height="71" rx="20" fill="white"/>
</g>
<path d="M36 46.3998C43.6 46.3998 45.5 38.7998 45.5 38.7998C45.5 38.7998 41.5 41 36 41C30.5 41 26.5 38.7998 26.5 38.7998C26.5 38.7998 28.4 46.3998 36 46.3998Z" fill="#FCB045"/>
<path d="M36 54C46.4766 54 55 45.4766 55 35C55 24.5234 46.4766 16 36 16C25.5234 16 17 24.5234 17 35C17 45.4766 25.5234 54 36 54ZM36 19.8C44.3809 19.8 51.2 26.6191 51.2 35C51.2 43.3809 44.3809 50.2 36 50.2C27.6191 50.2 20.8 43.3809 20.8 35C20.8 26.6191 27.6191 19.8 36 19.8Z" fill="#FCB045"/>
<path d="M31.3739 34L34.1028 31.303C34.2884 31.1225 34.4352 30.9079 34.5346 30.6716C34.634 30.4354 34.684 30.1822 34.6818 29.9269C34.6796 29.6717 34.6251 29.4194 34.5216 29.1848C34.4181 28.9502 34.2675 28.7381 34.0788 28.5607C33.7152 28.2093 33.2259 28.0085 32.7135 28.0003C32.2011 27.9921 31.7052 28.1771 31.33 28.5166C30.9491 28.1815 30.4493 28.0033 29.9359 28.0197C29.4226 28.0361 28.9359 28.2459 28.5785 28.6047C27.7984 29.3815 27.8077 30.5857 28.6038 31.3457L31.3739 34ZM40.692 34L43.4209 31.303C43.6065 31.1225 43.7533 30.9079 43.8527 30.6716C43.9521 30.4354 44.0022 30.1822 43.9999 29.9269C43.9977 29.6717 43.9432 29.4194 43.8397 29.1848C43.7362 28.9502 43.5856 28.7381 43.3969 28.5607C43.0334 28.2093 42.5441 28.0085 42.0316 28.0003C41.5192 27.9921 41.0233 28.1771 40.6481 28.5166C40.2673 28.1809 39.7673 28.0023 39.2536 28.0185C38.74 28.0346 38.2529 28.2444 37.8952 28.6034C37.1152 29.3802 37.1245 30.5844 37.9205 31.3444L40.692 34V34Z" fill="#FCB045"/>
</g>
<defs>
<filter id="filter0_d_4311_22" x="-70" y="-70" width="211" height="211" filterUnits="userSpaceOnUse" color-interpolation-filters="sRGB">
<feFlood flood-opacity="0" result="BackgroundImageFix"/>
<feColorMatrix in="SourceAlpha" type="matrix" values="0 0 0 0 0 0 0 0 0 0 0 0 0 0 0 0 0 0 127 0" result="hardAlpha"/>
<feOffset/>
<feGaussianBlur stdDeviation="35"/>
<feComposite in2="hardAlpha" operator="out"/>
<feColorMatrix type="matrix" values="0 0 0 0 0.67451 0 0 0 0 0.67451 0 0 0 0 0.67451 0 0 0 0.25 0"/>
<feBlend mode="normal" in2="BackgroundImageFix" result="effect1_dropShadow_4311_22"/>
<feBlend mode="normal" in="SourceGraphic" in2="effect1_dropShadow_4311_22" result="shape"/>
</filter>
<clipPath id="clip0_4311_22">
<rect width="71" height="71" fill="white"/>
</clipPath>
</defs>
</svg>
