<svg width="71" height="71" viewBox="0 0 71 71" fill="none" xmlns="http://www.w3.org/2000/svg">
<g clip-path="url(#clip0_4311_276)">
<g filter="url(#filter0_d_4311_276)">
<rect width="71" height="71" rx="20" fill="white"/>
</g>
<path d="M34.6118 19.9495C35.0918 18.6835 36.9082 18.6835 37.3897 19.9495L40.4947 28.5504C40.7122 29.1204 41.2657 29.4999 41.8837 29.4999H49.5142C50.9242 29.4999 51.5392 31.2549 50.4307 32.1144L45.0007 36.9999C44.7575 37.1869 44.5797 37.4461 44.4929 37.7404C44.4062 38.0346 44.4148 38.3488 44.5177 38.6379L46.5007 47.0423C46.9837 48.3923 45.4207 49.5518 44.2387 48.7208L36.8632 44.0408C36.6107 43.8633 36.3095 43.7681 36.0008 43.7681C35.692 43.7681 35.3908 43.8633 35.1383 44.0408L27.7628 48.7208C26.5823 49.5518 25.0178 48.3908 25.5008 47.0423L27.4838 38.6379C27.5867 38.3488 27.5953 38.0346 27.5086 37.7404C27.4218 37.4461 27.244 37.1869 27.0008 36.9999L21.5708 32.1144C20.4609 31.2549 21.0788 29.4999 22.4858 29.4999H30.1163C30.4167 29.5009 30.7104 29.4107 30.9584 29.2411C31.2064 29.0716 31.3971 28.8307 31.5053 28.5504L34.6103 19.9495H34.6118Z" stroke="#F68567" stroke-width="3.3" stroke-linecap="round" stroke-linejoin="round"/>
</g>
<defs>
<filter id="filter0_d_4311_276" x="-70" y="-70" width="211" height="211" filterUnits="userSpaceOnUse" color-interpolation-filters="sRGB">
<feFlood flood-opacity="0" result="BackgroundImageFix"/>
<feColorMatrix in="SourceAlpha" type="matrix" values="0 0 0 0 0 0 0 0 0 0 0 0 0 0 0 0 0 0 127 0" result="hardAlpha"/>
<feOffset/>
<feGaussianBlur stdDeviation="35"/>
<feComposite in2="hardAlpha" operator="out"/>
<feColorMatrix type="matrix" values="0 0 0 0 0.67451 0 0 0 0 0.67451 0 0 0 0 0.67451 0 0 0 0.25 0"/>
<feBlend mode="normal" in2="BackgroundImageFix" result="effect1_dropShadow_4311_276"/>
<feBlend mode="normal" in="SourceGraphic" in2="effect1_dropShadow_4311_276" result="shape"/>
</filter>
<clipPath id="clip0_4311_276">
<rect width="71" height="71" fill="white"/>
</clipPath>
</defs>
</svg>
