<svg width="211" height="211" viewBox="0 0 211 211" fill="none" xmlns="http://www.w3.org/2000/svg">
<g filter="url(#filter0_d_4311_285)">
<rect x="70" y="70" width="71" height="71" rx="20" fill="white"/>
</g>
<path d="M119.4 114.889H117.8V91.5556C117.8 91.143 117.631 90.7473 117.331 90.4556C117.031 90.1639 116.624 90 116.2 90C115.776 90 115.369 90.1639 115.069 90.4556C114.769 90.7473 114.6 91.143 114.6 91.5556V114.889H111.4V97.7778C111.4 97.3652 111.231 96.9696 110.931 96.6778C110.631 96.3861 110.224 96.2222 109.8 96.2222C109.376 96.2222 108.969 96.3861 108.669 96.6778C108.369 96.9696 108.2 97.3652 108.2 97.7778V114.889H105V104C105 103.587 104.831 103.192 104.531 102.9C104.231 102.608 103.824 102.444 103.4 102.444C102.976 102.444 102.569 102.608 102.269 102.9C101.969 103.192 101.8 103.587 101.8 104V114.889H98.6V110.222C98.6 109.81 98.4314 109.414 98.1314 109.122C97.8313 108.831 97.4243 108.667 97 108.667C96.5757 108.667 96.1687 108.831 95.8686 109.122C95.5686 109.414 95.4 109.81 95.4 110.222V114.889H92.2V98.1667C92.2 97.7541 92.0314 97.3584 91.7314 97.0667C91.4313 96.775 91.0243 96.6111 90.6 96.6111C90.1757 96.6111 89.7687 96.775 89.4686 97.0667C89.1686 97.3584 89 97.7541 89 98.1667V116.444C89 116.857 89.1686 117.253 89.4686 117.544C89.7687 117.836 90.1757 118 90.6 118H119.4C119.824 118 120.231 117.836 120.531 117.544C120.831 117.253 121 116.857 121 116.444C121 116.032 120.831 115.636 120.531 115.345C120.231 115.053 119.824 114.889 119.4 114.889Z" fill="#08FD8C"/>
<defs>
<filter id="filter0_d_4311_285" x="0" y="0" width="211" height="211" filterUnits="userSpaceOnUse" color-interpolation-filters="sRGB">
<feFlood flood-opacity="0" result="BackgroundImageFix"/>
<feColorMatrix in="SourceAlpha" type="matrix" values="0 0 0 0 0 0 0 0 0 0 0 0 0 0 0 0 0 0 127 0" result="hardAlpha"/>
<feOffset/>
<feGaussianBlur stdDeviation="35"/>
<feComposite in2="hardAlpha" operator="out"/>
<feColorMatrix type="matrix" values="0 0 0 0 0.67451 0 0 0 0 0.67451 0 0 0 0 0.67451 0 0 0 0.25 0"/>
<feBlend mode="normal" in2="BackgroundImageFix" result="effect1_dropShadow_4311_285"/>
<feBlend mode="normal" in="SourceGraphic" in2="effect1_dropShadow_4311_285" result="shape"/>
</filter>
</defs>
</svg>
