<svg width="71" height="71" viewBox="0 0 71 71" fill="none" xmlns="http://www.w3.org/2000/svg">
<g clip-path="url(#clip0_4311_180)">
<g filter="url(#filter0_d_4311_180)">
<rect width="71" height="71" rx="20" fill="white"/>
</g>
<path d="M49.4 44.8889H47.8V21.5556C47.8 21.143 47.6314 20.7473 47.3314 20.4556C47.0313 20.1639 46.6243 20 46.2 20C45.7757 20 45.3687 20.1639 45.0686 20.4556C44.7686 20.7473 44.6 21.143 44.6 21.5556V44.8889H41.4V27.7778C41.4 27.3652 41.2314 26.9696 40.9314 26.6778C40.6313 26.3861 40.2243 26.2222 39.8 26.2222C39.3757 26.2222 38.9687 26.3861 38.6686 26.6778C38.3686 26.9696 38.2 27.3652 38.2 27.7778V44.8889H35V34C35 33.5874 34.8314 33.1918 34.5314 32.9001C34.2313 32.6083 33.8243 32.4444 33.4 32.4444C32.9757 32.4444 32.5687 32.6083 32.2686 32.9001C31.9686 33.1918 31.8 33.5874 31.8 34V44.8889H28.6V40.2222C28.6 39.8097 28.4314 39.414 28.1314 39.1223C27.8313 38.8306 27.4243 38.6667 27 38.6667C26.5757 38.6667 26.1687 38.8306 25.8686 39.1223C25.5686 39.414 25.4 39.8097 25.4 40.2222V44.8889H22.2V28.1667C22.2 27.7541 22.0314 27.3584 21.7314 27.0667C21.4313 26.775 21.0243 26.6111 20.6 26.6111C20.1757 26.6111 19.7687 26.775 19.4686 27.0667C19.1686 27.3584 19 27.7541 19 28.1667V46.4444C19 46.857 19.1686 47.2527 19.4686 47.5444C19.7687 47.8361 20.1757 48 20.6 48H49.4C49.8243 48 50.2313 47.8361 50.5314 47.5444C50.8314 47.2527 51 46.857 51 46.4444C51 46.0319 50.8314 45.6362 50.5314 45.3445C50.2313 45.0528 49.8243 44.8889 49.4 44.8889Z" fill="#08FD8C"/>
</g>
<defs>
<filter id="filter0_d_4311_180" x="-70" y="-70" width="211" height="211" filterUnits="userSpaceOnUse" color-interpolation-filters="sRGB">
<feFlood flood-opacity="0" result="BackgroundImageFix"/>
<feColorMatrix in="SourceAlpha" type="matrix" values="0 0 0 0 0 0 0 0 0 0 0 0 0 0 0 0 0 0 127 0" result="hardAlpha"/>
<feOffset/>
<feGaussianBlur stdDeviation="35"/>
<feComposite in2="hardAlpha" operator="out"/>
<feColorMatrix type="matrix" values="0 0 0 0 0.67451 0 0 0 0 0.67451 0 0 0 0 0.67451 0 0 0 0.25 0"/>
<feBlend mode="normal" in2="BackgroundImageFix" result="effect1_dropShadow_4311_180"/>
<feBlend mode="normal" in="SourceGraphic" in2="effect1_dropShadow_4311_180" result="shape"/>
</filter>
<clipPath id="clip0_4311_180">
<rect width="71" height="71" fill="white"/>
</clipPath>
</defs>
</svg>
